<mxfile host="app.diagrams.net" agent="Mozilla/5.0 (Macintosh; Intel Mac OS X 10_15_7) AppleWebKit/605.1.15 (KHTML, like Gecko) Version/17.1 Safari/605.1.15" version="26.0.16">
  <diagram name="第 1 页" id="PZE3N_VyogF6whfXLo6M">
    <mxGraphModel dx="1434" dy="827" grid="1" gridSize="10" guides="1" tooltips="1" connect="1" arrows="1" fold="1" page="1" pageScale="1" pageWidth="1200" pageHeight="1600" math="0" shadow="0">
      <root>
        <mxCell id="0" />
        <mxCell id="1" parent="0" />
        <mxCell id="0QIOndgU3hM8L6JyuvMU-1" value="5" style="ellipse;whiteSpace=wrap;html=1;strokeWidth=2;" vertex="1" parent="1">
          <mxGeometry x="290" y="20" width="90" height="60" as="geometry" />
        </mxCell>
        <mxCell id="0QIOndgU3hM8L6JyuvMU-8" style="rounded=0;orthogonalLoop=1;jettySize=auto;html=1;entryX=0;entryY=0.5;entryDx=0;entryDy=0;endArrow=none;startFill=0;strokeWidth=2;" edge="1" parent="1" source="0QIOndgU3hM8L6JyuvMU-2" target="0QIOndgU3hM8L6JyuvMU-1">
          <mxGeometry relative="1" as="geometry" />
        </mxCell>
        <mxCell id="0QIOndgU3hM8L6JyuvMU-2" value="1" style="ellipse;whiteSpace=wrap;html=1;strokeWidth=2;" vertex="1" parent="1">
          <mxGeometry x="170" y="110" width="90" height="60" as="geometry" />
        </mxCell>
        <mxCell id="0QIOndgU3hM8L6JyuvMU-9" style="rounded=0;orthogonalLoop=1;jettySize=auto;html=1;entryX=1;entryY=0.5;entryDx=0;entryDy=0;endArrow=none;startFill=0;strokeWidth=2;" edge="1" parent="1" source="0QIOndgU3hM8L6JyuvMU-5" target="0QIOndgU3hM8L6JyuvMU-1">
          <mxGeometry relative="1" as="geometry" />
        </mxCell>
        <mxCell id="0QIOndgU3hM8L6JyuvMU-21" style="rounded=0;orthogonalLoop=1;jettySize=auto;html=1;entryX=0.5;entryY=0;entryDx=0;entryDy=0;endArrow=none;startFill=0;strokeWidth=2;" edge="1" parent="1" source="0QIOndgU3hM8L6JyuvMU-5" target="0QIOndgU3hM8L6JyuvMU-7">
          <mxGeometry relative="1" as="geometry" />
        </mxCell>
        <mxCell id="0QIOndgU3hM8L6JyuvMU-5" value="4" style="ellipse;whiteSpace=wrap;html=1;strokeWidth=2;" vertex="1" parent="1">
          <mxGeometry x="425" y="110" width="90" height="60" as="geometry" />
        </mxCell>
        <mxCell id="0QIOndgU3hM8L6JyuvMU-10" style="rounded=0;orthogonalLoop=1;jettySize=auto;html=1;endArrow=none;startFill=0;strokeWidth=2;" edge="1" parent="1" source="0QIOndgU3hM8L6JyuvMU-6" target="0QIOndgU3hM8L6JyuvMU-2">
          <mxGeometry relative="1" as="geometry" />
        </mxCell>
        <mxCell id="0QIOndgU3hM8L6JyuvMU-6" value="2" style="ellipse;whiteSpace=wrap;html=1;strokeWidth=2;" vertex="1" parent="1">
          <mxGeometry x="170" y="210" width="90" height="60" as="geometry" />
        </mxCell>
        <mxCell id="0QIOndgU3hM8L6JyuvMU-7" value="3" style="ellipse;whiteSpace=wrap;html=1;strokeWidth=2;" vertex="1" parent="1">
          <mxGeometry x="425" y="220" width="90" height="60" as="geometry" />
        </mxCell>
        <mxCell id="0QIOndgU3hM8L6JyuvMU-12" value="" style="whiteSpace=wrap;html=1;aspect=fixed;fillColor=#008a00;fontColor=#ffffff;strokeColor=#005700;strokeWidth=2;" vertex="1" parent="1">
          <mxGeometry x="440" y="370" width="40" height="40" as="geometry" />
        </mxCell>
        <mxCell id="0QIOndgU3hM8L6JyuvMU-16" style="rounded=0;orthogonalLoop=1;jettySize=auto;html=1;entryX=0.5;entryY=1;entryDx=0;entryDy=0;endArrow=none;startFill=0;exitX=0.5;exitY=0;exitDx=0;exitDy=0;exitPerimeter=0;strokeWidth=2;" edge="1" parent="1" source="0QIOndgU3hM8L6JyuvMU-14" target="0QIOndgU3hM8L6JyuvMU-6">
          <mxGeometry relative="1" as="geometry">
            <mxPoint x="215" y="320" as="sourcePoint" />
          </mxGeometry>
        </mxCell>
        <mxCell id="0QIOndgU3hM8L6JyuvMU-14" value="" style="verticalLabelPosition=bottom;verticalAlign=top;html=1;shape=mxgraph.basic.smiley;strokeWidth=2;" vertex="1" parent="1">
          <mxGeometry x="240" y="310" width="45" height="50" as="geometry" />
        </mxCell>
        <mxCell id="0QIOndgU3hM8L6JyuvMU-17" style="rounded=0;orthogonalLoop=1;jettySize=auto;html=1;entryX=0.5;entryY=1;entryDx=0;entryDy=0;endArrow=none;startFill=0;strokeWidth=2;" edge="1" parent="1" source="0QIOndgU3hM8L6JyuvMU-15" target="0QIOndgU3hM8L6JyuvMU-7">
          <mxGeometry relative="1" as="geometry" />
        </mxCell>
        <mxCell id="0QIOndgU3hM8L6JyuvMU-15" value="" style="verticalLabelPosition=bottom;verticalAlign=top;html=1;shape=mxgraph.basic.smiley;strokeWidth=2;" vertex="1" parent="1">
          <mxGeometry x="390" y="310" width="45" height="50" as="geometry" />
        </mxCell>
        <mxCell id="0QIOndgU3hM8L6JyuvMU-22" value="" style="whiteSpace=wrap;html=1;aspect=fixed;fillColor=#d80073;fontColor=#ffffff;strokeColor=#A50040;strokeWidth=2;" vertex="1" parent="1">
          <mxGeometry x="480" y="370" width="40" height="40" as="geometry" />
        </mxCell>
        <mxCell id="0QIOndgU3hM8L6JyuvMU-23" value="" style="shape=table;startSize=0;container=1;collapsible=0;childLayout=tableLayout;strokeWidth=1;fontSize=16;" vertex="1" parent="1">
          <mxGeometry x="740" y="60" width="330" height="240" as="geometry" />
        </mxCell>
        <mxCell id="0QIOndgU3hM8L6JyuvMU-24" value="" style="shape=tableRow;horizontal=0;startSize=0;swimlaneHead=0;swimlaneBody=0;strokeColor=inherit;top=0;left=0;bottom=0;right=0;collapsible=0;dropTarget=0;fillColor=none;points=[[0,0.5],[1,0.5]];portConstraint=eastwest;strokeWidth=1;fontSize=16;" vertex="1" parent="0QIOndgU3hM8L6JyuvMU-23">
          <mxGeometry width="330" height="60" as="geometry" />
        </mxCell>
        <mxCell id="0QIOndgU3hM8L6JyuvMU-25" value="符号" style="shape=partialRectangle;html=1;whiteSpace=wrap;connectable=0;strokeColor=inherit;overflow=hidden;fillColor=none;top=0;left=0;bottom=0;right=0;pointerEvents=1;strokeWidth=1;fontSize=16;" vertex="1" parent="0QIOndgU3hM8L6JyuvMU-24">
          <mxGeometry width="165" height="60" as="geometry">
            <mxRectangle width="165" height="60" as="alternateBounds" />
          </mxGeometry>
        </mxCell>
        <mxCell id="0QIOndgU3hM8L6JyuvMU-26" value="标识" style="shape=partialRectangle;html=1;whiteSpace=wrap;connectable=0;strokeColor=inherit;overflow=hidden;fillColor=none;top=0;left=0;bottom=0;right=0;pointerEvents=1;strokeWidth=1;fontSize=16;" vertex="1" parent="0QIOndgU3hM8L6JyuvMU-24">
          <mxGeometry x="165" width="165" height="60" as="geometry">
            <mxRectangle width="165" height="60" as="alternateBounds" />
          </mxGeometry>
        </mxCell>
        <mxCell id="0QIOndgU3hM8L6JyuvMU-27" value="" style="shape=tableRow;horizontal=0;startSize=0;swimlaneHead=0;swimlaneBody=0;strokeColor=inherit;top=0;left=0;bottom=0;right=0;collapsible=0;dropTarget=0;fillColor=none;points=[[0,0.5],[1,0.5]];portConstraint=eastwest;strokeWidth=1;fontSize=16;" vertex="1" parent="0QIOndgU3hM8L6JyuvMU-23">
          <mxGeometry y="60" width="330" height="60" as="geometry" />
        </mxCell>
        <mxCell id="0QIOndgU3hM8L6JyuvMU-28" value="" style="shape=partialRectangle;html=1;whiteSpace=wrap;connectable=0;strokeColor=inherit;overflow=hidden;fillColor=none;top=0;left=0;bottom=0;right=0;pointerEvents=1;strokeWidth=1;fontSize=16;" vertex="1" parent="0QIOndgU3hM8L6JyuvMU-27">
          <mxGeometry width="165" height="60" as="geometry">
            <mxRectangle width="165" height="60" as="alternateBounds" />
          </mxGeometry>
        </mxCell>
        <mxCell id="0QIOndgU3hM8L6JyuvMU-29" value="服务器" style="shape=partialRectangle;html=1;whiteSpace=wrap;connectable=0;strokeColor=inherit;overflow=hidden;fillColor=none;top=0;left=0;bottom=0;right=0;pointerEvents=1;strokeWidth=1;fontSize=16;" vertex="1" parent="0QIOndgU3hM8L6JyuvMU-27">
          <mxGeometry x="165" width="165" height="60" as="geometry">
            <mxRectangle width="165" height="60" as="alternateBounds" />
          </mxGeometry>
        </mxCell>
        <mxCell id="0QIOndgU3hM8L6JyuvMU-30" value="" style="shape=tableRow;horizontal=0;startSize=0;swimlaneHead=0;swimlaneBody=0;strokeColor=inherit;top=0;left=0;bottom=0;right=0;collapsible=0;dropTarget=0;fillColor=none;points=[[0,0.5],[1,0.5]];portConstraint=eastwest;strokeWidth=1;fontSize=16;" vertex="1" parent="0QIOndgU3hM8L6JyuvMU-23">
          <mxGeometry y="120" width="330" height="60" as="geometry" />
        </mxCell>
        <mxCell id="0QIOndgU3hM8L6JyuvMU-31" value="" style="shape=partialRectangle;html=1;whiteSpace=wrap;connectable=0;strokeColor=inherit;overflow=hidden;fillColor=none;top=0;left=0;bottom=0;right=0;pointerEvents=1;strokeWidth=1;fontSize=16;" vertex="1" parent="0QIOndgU3hM8L6JyuvMU-30">
          <mxGeometry width="165" height="60" as="geometry">
            <mxRectangle width="165" height="60" as="alternateBounds" />
          </mxGeometry>
        </mxCell>
        <mxCell id="0QIOndgU3hM8L6JyuvMU-32" value="用户" style="shape=partialRectangle;html=1;whiteSpace=wrap;connectable=0;strokeColor=inherit;overflow=hidden;fillColor=none;top=0;left=0;bottom=0;right=0;pointerEvents=1;strokeWidth=1;fontSize=16;" vertex="1" parent="0QIOndgU3hM8L6JyuvMU-30">
          <mxGeometry x="165" width="165" height="60" as="geometry">
            <mxRectangle width="165" height="60" as="alternateBounds" />
          </mxGeometry>
        </mxCell>
        <mxCell id="0QIOndgU3hM8L6JyuvMU-33" value="" style="shape=tableRow;horizontal=0;startSize=0;swimlaneHead=0;swimlaneBody=0;strokeColor=inherit;top=0;left=0;bottom=0;right=0;collapsible=0;dropTarget=0;fillColor=none;points=[[0,0.5],[1,0.5]];portConstraint=eastwest;strokeWidth=1;fontSize=16;" vertex="1" parent="0QIOndgU3hM8L6JyuvMU-23">
          <mxGeometry y="180" width="330" height="60" as="geometry" />
        </mxCell>
        <mxCell id="0QIOndgU3hM8L6JyuvMU-34" value="" style="shape=partialRectangle;html=1;whiteSpace=wrap;connectable=0;strokeColor=inherit;overflow=hidden;fillColor=none;top=0;left=0;bottom=0;right=0;pointerEvents=1;strokeWidth=1;fontSize=16;" vertex="1" parent="0QIOndgU3hM8L6JyuvMU-33">
          <mxGeometry width="165" height="60" as="geometry">
            <mxRectangle width="165" height="60" as="alternateBounds" />
          </mxGeometry>
        </mxCell>
        <mxCell id="0QIOndgU3hM8L6JyuvMU-35" value="服务" style="shape=partialRectangle;html=1;whiteSpace=wrap;connectable=0;strokeColor=inherit;overflow=hidden;fillColor=none;top=0;left=0;bottom=0;right=0;pointerEvents=1;strokeWidth=1;fontSize=16;" vertex="1" parent="0QIOndgU3hM8L6JyuvMU-33">
          <mxGeometry x="165" width="165" height="60" as="geometry">
            <mxRectangle width="165" height="60" as="alternateBounds" />
          </mxGeometry>
        </mxCell>
        <mxCell id="0QIOndgU3hM8L6JyuvMU-36" value="5" style="ellipse;whiteSpace=wrap;html=1;strokeWidth=1;fontSize=16;" vertex="1" parent="1">
          <mxGeometry x="800" y="130" width="60" height="40" as="geometry" />
        </mxCell>
        <mxCell id="0QIOndgU3hM8L6JyuvMU-37" value="" style="verticalLabelPosition=bottom;verticalAlign=top;html=1;shape=mxgraph.basic.smiley;strokeWidth=1;fontSize=16;" vertex="1" parent="1">
          <mxGeometry x="813.75" y="190" width="32.5" height="40" as="geometry" />
        </mxCell>
        <mxCell id="0QIOndgU3hM8L6JyuvMU-38" value="" style="whiteSpace=wrap;html=1;aspect=fixed;fillColor=#008a00;fontColor=#ffffff;strokeColor=#005700;strokeWidth=1;fontSize=16;" vertex="1" parent="1">
          <mxGeometry x="800" y="250" width="40" height="40" as="geometry" />
        </mxCell>
        <mxCell id="0QIOndgU3hM8L6JyuvMU-39" value="" style="whiteSpace=wrap;html=1;aspect=fixed;fillColor=#d80073;fontColor=#ffffff;strokeColor=#A50040;strokeWidth=1;fontSize=16;" vertex="1" parent="1">
          <mxGeometry x="840" y="250" width="40" height="40" as="geometry" />
        </mxCell>
      </root>
    </mxGraphModel>
  </diagram>
</mxfile>
